<?xml version="1.0" encoding="UTF-8"?>
<svg data-bbox="3.56 3.4 235.14 234.31" viewBox="0 0 245.93 242.28" xmlns="http://www.w3.org/2000/svg" data-type="color">
    <g>
        <path d="M121.13 3.4C56.2 3.4 3.56 56.04 3.56 120.97c0 45.74 26.12 85.37 64.26 104.81-.05-1.27-.15-2.54-.34-3.91-.78-7.78-1.95-15.17-3.5-22.57-1.56-7.39-3.89-14.78-6.22-22.18-2.33-7-5.45-14.4-8.95-21.01-3.5-6.61-7.78-13.23-11.67-19.45-4.28-6.61-9.34-12.06-13.62-18.29 2.72-.39 5.06.78 7 1.95 7.39 4.28 14.01 9.73 20.23 15.56 17.9 17.12 31.12 37.74 38.91 61.47 4.26 12.44 6.56 25.52 7.23 38.66 3.22.67 6.48 1.22 9.79 1.62-.36-11.42-.74-23.12-1.45-34.84-1.95-28.4-6.61-56.41-15.95-83.26-6.22-17.9-14.4-35.4-26.07-50.58-4.28-5.84-9.34-10.5-14.01-15.95-.78-.39-1.17-1.17-1.95-1.95 0-.39.39-.39.39-.78 2.33.78 4.67 1.56 6.61 3.11 9.73 5.06 17.9 12.45 25.29 20.23 17.9 18.67 29.96 40.46 38.52 64.58 6.22 17.51 10.5 35.01 12.84 52.91 2.57 15.41 3.4 31.16 3.81 46.61 6.16-.71 12.17-1.89 18.01-3.51.81-14.62 3.52-28.86 8.14-42.71 8.56-25.29 22.18-47.08 42.02-64.58 3.5-3.11 7.39-5.84 11.28-8.17.78-.78 2.33-.39 3.89-.78-.39 1.56-.78 2.72-1.56 3.89-3.89 6.61-8.17 12.84-10.89 19.45-9.73 17.12-15.56 35.4-19.45 54.47-1.72 8.6-2.83 16.9-3.6 25.43 33.68-20.68 56.15-57.84 56.15-100.26C238.69 56.04 186.05 3.4 121.13 3.4zm67.73 80.74c-16.73 14.4-27.23 32.68-34.63 52.91-4.67 13.23-7.78 26.84-10.12 40.46 0 .39 0 1.17-.39 1.95-1.17-5.45-1.95-10.5-3.11-15.56-1.56-6.61-3.11-12.84-5.06-19.45 0-.78-.39-1.56 0-2.33 5.06-13.23 10.12-23.34 18.67-34.63 7.39-9.34 15.56-17.12 26.46-22.18 2.72-1.17 5.84-1.95 8.56-3.11 0 0 .39.39.39.78-.38.38-.77.77-.77 1.16z" fill="#6cb646" data-color="1"/>
    </g>
</svg>
