<?xml version="1.0" encoding="UTF-8"?>
<svg data-bbox="5.86 4.23 235.1 235.12" viewBox="0 0 241.74 242.28" xmlns="http://www.w3.org/2000/svg" data-type="color">
    <g>
        <path d="M16.85 171.48a118.09 118.09 0 0012.6 20.96c.75-.4 1.45-.91 2.08-1.54l33.67-33.67-17.05-17.05-31.3 31.3z" fill="#6cb646" data-color="1"/>
        <path d="M77.56 207.94c-2.13.43-6.82 2.56-8.52 4.26-1.54 1.54-4.64 5.75-7.2 9.74.75.46 1.51.92 2.28 1.37 3.82-2.49 7.72-5.38 9.18-6.84 2.13-2.13 3.84-6.39 4.26-8.53z" fill="#6cb646" data-color="1"/>
        <path d="M78.41 144.02l-17.05-17.05-7.25 7.25 17.05 17.05 7.25-7.25z" fill="#6cb646" data-color="1"/>
        <path fill="#6cb646" d="M138.5 129.95l17.05 17.048-7.248 7.248-17.049-17.048 7.248-7.248z" data-color="1"/>
        <path fill="#6cb646" d="M148.31 52.39l-15.77 15.77v4.26l4.69.42L153 57.07l-4.69-4.68z" data-color="1"/>
        <path d="M195.19 106.94c3.41-3.41 3.41-8.52-.43-12.36l-4.69-4.69c-3.41-3.41-8.52-3.41-11.93 0l-33.67 33.67 17.05 17.05 33.67-33.67z" fill="#6cb646" data-color="1"/>
        <path d="M123.42 4.23C58.49 4.23 5.86 56.86 5.86 121.79c0 14.42 2.6 28.22 7.35 40.98l42.2-42.2-5.54-5.54c-1.7-1.7-1.7-4.26 0-5.97 1.7-1.7 4.26-1.7 5.97 0l17.05 17.05 51.14-51.14v-8.52c0-.85.43-2.13 1.28-2.98l20.03-20.03c1.7-1.7 4.26-1.7 5.97 0l10.65 10.65c1.7 1.7 1.7 4.26 0 5.97l-20.03 20.03c-.85.85-1.7 1.28-2.98 1.28h-.43l-8.1-.43-51.57 51.57 8.5 8.5.05.05 8.5 8.5c1.7 1.7 1.7 4.26 0 5.97-1.7 1.7-4.26 1.7-5.97 0l-5.54-5.97-46.89 46.88c-.91.91-1.89 1.69-2.92 2.35 5.88 6.78 12.53 12.87 19.8 18.16 3.78-6.05 8.26-11.14 8.26-11.14 2.56-2.56 11.08-7.67 17.05-6.39l51.14-50.72-17.05-17.05c-1.7-1.7-1.7-4.26 0-5.97 1.7-1.7 4.26-1.7 5.97 0l5.54 5.54 46.88-46.88c6.82-6.82 17.47-6.82 24.29 0l4.69 4.69c6.82 6.82 6.82 17.47 0 24.29l-36.65 36.65-10.23 10.23 5.11 5.54c1.7 1.7 1.7 4.26 0 5.97-1.7 1.7-4.26 1.7-5.97 0l-17.05-17.05-50.72 50.72c1.28 6.39-3.84 14.49-6.39 17.05-1.24 1.24-3.68 3.28-6.66 5.4 15.38 7.38 32.61 11.52 50.81 11.52 64.93 0 117.56-52.64 117.56-117.56S188.35 4.23 123.42 4.23z" fill="#6cb646" data-color="1"/>
    </g>
</svg>
