<?xml version="1.0" encoding="UTF-8"?>
<svg data-bbox="3.58 3.7 235.11 235.13" viewBox="0 0 241.74 242.28" xmlns="http://www.w3.org/2000/svg" data-type="color">
    <g>
        <path fill="#6cb646" d="M127.72 131.7l10.96-32.12-27.67 19.65 16.71 12.47z" data-color="1"/>
        <path d="M124.37 141.52l-21.82-16.29-81.45 57.81c15.85 25.61 41.26 44.68 71.26 52.23l32.01-93.75z" fill="#6cb646" data-color="1"/>
        <path d="M121.14 3.7C56.21 3.7 3.58 56.33 3.58 121.26c0 21.25 5.64 41.17 15.5 58.37l73.06-62.18-35.4-26.42 5.9-7.91 37.2 27.77 27.86-23.71 1.2-.69 9.78 13.09 15.33 5.66-.32 1.35-14.81 33.45 37.2 27.77-5.9 7.91-35.4-26.42-38.47 86.9c8 1.72 16.31 2.63 24.82 2.63 64.93 0 117.56-52.64 117.56-117.56S186.07 3.7 121.14 3.7zm49.65 65.28l-3.2-2.39-3.89 5.21-5.51-4.11 3.89-5.21-3.19-2.38 17.31-23.19 11.9 8.88-17.31 23.19z" fill="#6cb646" data-color="1"/>
    </g>
</svg>
