<?xml version="1.0" encoding="UTF-8"?>
<svg data-bbox="6.32 3 235.13 235.11" viewBox="0 0 245.93 242.28" xmlns="http://www.w3.org/2000/svg" data-type="color">
    <g>
        <path d="M92.04 199.36c-.23 4.81 1.37 8.47 6.18 10.07s9.84 2.75 13.97-1.6c4.12-4.81 8.01-10.07 13.28-16.48-12.13-3.21-22.21-5.95-33.43-8.93 0 6.63.23 11.67 0 16.94z" fill="#6cb646" data-color="1"/>
        <path d="M160.04 166.85c12.36-10.3 24.04-21.29 35.94-32.05 0 0 5.95-4.81 5.49-5.27-10.3 7.1-27.93 17.4-37.78 25.18-8.7 6.87-17.63 8.93-28.39 8.24-12.36-.92-24.95-.23-37.32-.23 16.71 3.43 33.43 6.18 50.37 7.78 3.9.47 8.71-1.14 11.69-3.65z" fill="#6cb646" data-color="1"/>
        <path d="M201.02 200.73c0-5.27-4.81-9.39-10.53-9.16-5.95.23-10.07 4.12-9.84 9.84 0 5.27 4.35 9.16 10.3 9.16 5.72-.22 10.07-4.35 10.07-9.84z" fill="#6cb646" data-color="1"/>
        <path d="M165.99 201.19c0-13.97 11.22-24.95 25.41-24.5 11.75 0 20.82 7.71 23.05 18.83 16.86-20.35 27-46.47 27-74.96C241.45 55.63 188.81 3 123.89 3S6.32 55.63 6.32 120.55s52.64 117.56 117.56 117.56c20.59 0 39.94-5.3 56.77-14.6-8.62-3.81-14.66-12.31-14.66-22.32zM121.12 36.35c8.47 4.35 13.05 11.68 15.8 20.61 1.14 4.12 2.06 8.24 2.98 12.13 5.72-5.95 10.76-12.36 17.17-17.4 3.89-3.21 9.39-5.04 14.19-6.64 5.49-1.83 11.22-2.75 18.32-4.35-2.98 12.59-7.33 22.67-15.8 30.45-8.47 8.01-19.23 9.16-31.82 7.78 1.14 7.56 1.83 13.51 2.75 19.23 14.65 4.81 29.99 6.41 40.98 18.32-7.56 2.75-82.65 3.21-94.33.69 11.45-12.59 26.79-14.19 41.21-18.77 3.21-8.7 4.12-17.17 2.29-26.56-29.99 1.14-41.9-19.23-53.34-43.27 14.64.68 27.46 1.6 39.6 7.78zm35.71 162.55c-7.33-1.6-14.65-3.43-22.21-5.04-5.04 5.72-10.07 11.45-15.11 17.17-5.49 6.18-12.36 8.47-20.6 6.87-9.39-1.83-13.74-6.18-14.65-15.8-.69-6.87-.92-13.74-1.37-21.75-6.64-1.83-13.05-3.89-19.69-5.72-14.19-3.89-16.94-7.1-18.54-21.75-.69-6.18-1.83-12.36-2.52-17.4-.23-1.37-3.66-2.29-4.58-2.29-1.6-.23-3.43-.23-5.04-.23-2.29 0-6.87-.92-6.87-3.89 0-3.21 7.33-4.58 9.84-4.58 7.56-.69 14.42 3.66 17.17 10.53.69 1.6 1.14 3.43 1.37 5.27.69 5.27 1.14 10.53 2.06 15.8 1.14 7.33 2.29 8.24 11.68 10.07-2.29-13.74-4.35-26.56-6.41-41.21h154.31c.23.69.23 1.37.46 2.06-5.95 5.27-12.13 10.76-16.26 14.42-1.14 10.76-2.06 18.32-2.98 26.33h-8.7c-.23-4.12-.46-7.56-.46-12.13-6.64 3.21-11.22 7.78-15.8 12.13-8.7 8.7-18.32 11.45-30.68 9.16-12.59-2.52-25.41-3.21-38.23-4.58-2.29-.23-4.58 0-7.1 1.37 20.83 5.49 41.44 10.76 62.96 16.48-.68 2.98-1.13 5.5-2.05 8.71z" fill="#6cb646" data-color="1"/>
    </g>
</svg>
