<?xml version="1.0" encoding="UTF-8"?>
<svg data-bbox="4.06 4.59 235.13 235.13" viewBox="0 0 241.74 242.28" xmlns="http://www.w3.org/2000/svg" data-type="color">
    <g>
        <path d="M94.19 193.42c0-5.01 2.03-9.55 5.31-12.83l14.91-14.91c-5.65-6.62-7.93-15.69-5.6-24.53L61.25 93.58c-10.62-10.62-10.62-27.85 0-38.46l60.15 60.15V30.2c15.01 0 27.19 12.17 27.19 27.19v67.21c7.83 4.53 12.76 12.6 13.45 21.38h21.03c4.64 0 9.28 1.77 12.82 5.31l28.31 28.32c9.54-16.99 14.99-36.59 14.99-57.46 0-64.93-52.64-117.56-117.56-117.56C56.7 4.58 4.06 57.21 4.06 122.14c0 55.48 38.43 101.98 90.13 114.34v-43.06z" fill="#6cb646" data-color="1"/>
        <path d="M183.07 164.11H156.8c-5.95 8.09-15.95 12.39-26 10.83l-18.48 18.47v45.94c3.07.24 6.17.37 9.3.37 37.43 0 70.76-17.49 92.29-44.74l-30.84-30.87z" fill="#6cb646" data-color="1"/>
        <path d="M125.92 148.08c0 5.01 4.05 9.07 9.07 9.07 5.01 0 9.06-4.05 9.06-9.07 0-5.01-4.05-9.06-9.06-9.06-5.01 0-9.07 4.06-9.07 9.06z" fill="#6cb646" data-color="1"/>
    </g>
</svg>
