<?xml version="1.0" encoding="UTF-8"?>
<svg data-bbox="4.33 2.24 235.13 235.11" viewBox="0 0 241.74 242.28" xmlns="http://www.w3.org/2000/svg" data-type="color">
    <g>
        <path d="M77.4 75.29c21.54 9.84 34.06 18.59 34.06 18.59 1.15-2.92-1.13-7.41-1.13-7.41 10.16 3.33 20.42 18.39 20.42 18.39 1.03-4.32-3.28-10.51-3.28-10.51 7.51 1.87 12.61 7.62 15.74 12.54 2 .51 3.24.46 3.24.46-3.8-6.43-1.86-14.49-1.86-14.49 1.41 2.71 3.25 4.25 3.25 4.25 4.59-30.51 36.44-59.23 36.44-59.23-4.9 8.31-5.29 27.77 3.25 43.35 8.53 15.59 12.15 26.07 12.15 26.07 1.98-.78 2.6-4.05 2.6-4.05 4.6 6.74 4.09 19.02 4.09 19.02 2.52-1.5 2.68-6.6 2.68-6.6 6.79 8.72 2.77 19.54 2.77 19.54 3.05-.37 5.23-5.09 5.23-5.09 4.81 11.35-4.28 20.32-4.28 20.32 2.93-.82 8.69-4.78 8.69-4.78-1.86 25.07-26.69 32.88-26.69 32.88-24.88-39.15-20.61-90.01-20.61-90.01-11.03 37.51 12.82 83.82 17.11 91.44 2.82 5.02 10.33 16.41 13.51 23.2 21.42-21.29 34.68-50.78 34.68-83.37 0-64.93-52.64-117.56-117.56-117.56-32.17 0-61.32 12.93-82.55 33.87C45.48 50.15 59.8 67.25 77.4 75.29z" fill="#6cb646" data-color="1"/>
        <path d="M165.78 192.76c-42.34 23.15-72.57.09-72.57.09 4.56-3.84 7.64-5.26 7.64-5.26-10.29-.85-23.84-10.57-23.84-10.57 1.59-1.9 5.66-3.67 5.66-3.67-6.89-2.21-15.58-8.84-15.58-8.84 1.27-1.52 4.87-4.66 4.87-4.66-8.88-4.85-14.85-8.55-14.85-8.55 3.38-1.7 4.96-3.61 4.96-3.61-9.14-3.77-14.39-15.28-14.39-15.28 3.68 1.79 6.73 1.75 6.73 1.75-16.49-30.01-18.42-73.78-18.28-94.78-19.71 21.02-31.8 49.3-31.8 80.41 0 64.93 52.64 117.56 117.56 117.56 29.56 0 56.57-10.91 77.22-28.92-11.43-2.54-33.33-15.67-33.33-15.67z" fill="#6cb646" data-color="1"/>
        <path d="M172.25 174.41c-1.55 5.47-3.1 8.77-3.1 8.77-57.31-21.23-97.78-85.75-97.78-85.75 22.54 55.54 85.15 86.28 95.78 90.98 6.69 2.95 22.37 8.45 31.52 13.14-5.02-8.08-10.15-20.25-10.15-20.25-6.24-1.89-11.62-4.27-16.27-6.89z" fill="#6cb646" data-color="1"/>
    </g>
</svg>
